<?xml version="1.0" encoding="utf-8"?>
<!-- Generator: Adobe Illustrator 23.0.3, SVG Export Plug-In . SVG Version: 6.00 Build 0)  -->
<svg version="1.1" xmlns="http://www.w3.org/2000/svg" xmlns:xlink="http://www.w3.org/1999/xlink" x="0px" y="0px"
	 viewBox="0 0 195 43" style="enable-background:new 0 0 195 43;" xml:space="preserve">
<style type="text/css">
	.st0{fill:url(#SVGID_1_);}
	.st1{fill:url(#SVGID_2_);}
	.st2{fill:url(#SVGID_3_);}
	.st3{fill:url(#SVGID_4_);}
	.st4{fill:#9D9D9B;}
	.st5{fill:#1D1D1B;}
	.st6{display:none;}
	.st7{display:inline;}
	.st8{fill:url(#SVGID_5_);}
	.st9{fill:url(#SVGID_6_);}
	.st10{fill:url(#SVGID_7_);}
	.st11{fill:none;stroke:#9D9D9B;stroke-miterlimit:10;}
	.st12{stroke:#9D9D9B;stroke-linecap:round;stroke-miterlimit:10;}
	.st13{fill:none;stroke:#9D9D9B;stroke-linecap:round;stroke-linejoin:round;stroke-miterlimit:10;}
	.st14{fill:none;stroke:#1D1D1B;stroke-width:1.8;stroke-linecap:round;stroke-linejoin:round;stroke-miterlimit:10;}
</style>
<g id="Layer_1">
	<linearGradient id="SVGID_1_" gradientUnits="userSpaceOnUse" x1="28.7335" y1="27.6201" x2="39.7079" y2="27.6201">
		<stop  offset="0.1" style="stop-color:#005EA0"/>
		<stop  offset="0.7" style="stop-color:#0092D5"/>
	</linearGradient>
	<polygon class="st0" points="39.708,25.007 39.674,24.973 39.673,24.973 28.734,14.034 28.734,30.263 39.673,41.203 39.674,41.203 
		39.678,41.206 39.708,41.206 	"/>
	<g>
		<linearGradient id="SVGID_2_" gradientUnits="userSpaceOnUse" x1="15.4657" y1="49.7574" x2="54.9958" y2="10.2273">
			<stop  offset="0" style="stop-color:#005EA0"/>
			<stop  offset="0.7" style="stop-color:#0092D5"/>
		</linearGradient>
		<path class="st1" d="M43.719,42.896L43.719,42.896c-3.138,0-5.682-2.544-5.682-5.682V5.794c0-3.138,2.544-5.682,5.682-5.682h0
			c3.138,0,5.682,2.544,5.682,5.682v31.421C49.401,40.352,46.857,42.896,43.719,42.896z"/>
		<linearGradient id="SVGID_3_" gradientUnits="userSpaceOnUse" x1="1.0412" y1="38.3336" x2="41.2442" y2="-1.8694">
			<stop  offset="0" style="stop-color:#005EA0"/>
			<stop  offset="0.7" style="stop-color:#0092D5"/>
		</linearGradient>
		<path class="st2" d="M5.647,42.896L5.647,42.896c-3.138,0-5.682-2.544-5.682-5.682l0-6.972c0-3.138,2.544-5.682,5.682-5.682h0
			c3.138,0,5.682,2.544,5.682,5.682v6.972C11.328,40.352,8.784,42.896,5.647,42.896z"/>
		<linearGradient id="SVGID_4_" gradientUnits="userSpaceOnUse" x1="8.2019" y1="44.0971" x2="47.9493" y2="4.3496">
			<stop  offset="0" style="stop-color:#005EA0"/>
			<stop  offset="0.7" style="stop-color:#0092D5"/>
		</linearGradient>
		<path class="st3" d="M24.683,42.896L24.683,42.896c-3.138,0-5.682-2.544-5.682-5.682V18.018c0-3.138,2.544-5.682,5.682-5.682h0
			c3.138,0,5.682,2.544,5.682,5.682v19.197C30.364,40.352,27.821,42.896,24.683,42.896z"/>
	</g>
	<g>
		<path class="st4" d="M67.774,42.546c-0.454,0-0.907-0.053-1.35-0.162c-1.463-0.358-2.747-1.216-3.523-2.352
			c-0.73-1.068-1.1-2.427-1.1-4.037c0-3.207,1.714-5.645,4.474-6.362c0.504-0.13,1.028-0.181,1.544-0.186
			c0.971,0.013,1.966,0.265,2.878,0.731l0,0c1.828,0.935,3.022,2.893,3.193,5.239c0.178,2.437-0.79,4.719-2.525,5.953
			C70.281,42.142,69.023,42.546,67.774,42.546z M67.745,30.445c-0.412,0-0.822,0.052-1.22,0.155
			c-2.748,0.714-3.727,3.256-3.727,5.396c0,1.406,0.312,2.575,0.926,3.474c0.639,0.936,1.71,1.645,2.938,1.946
			c1.38,0.337,2.884,0.024,4.124-0.858c1.454-1.034,2.261-2.977,2.109-5.068c-0.146-1.995-1.137-3.65-2.652-4.424l0,0
			c-0.776-0.396-1.618-0.611-2.437-0.622C67.786,30.445,67.766,30.445,67.745,30.445z"/>
	</g>
	<path class="st4" d="M86.553,30.008h-8.497c-0.276,0-0.499,0.223-0.499,0.499s0.223,0.499,0.499,0.499h3.75v11.136
		c0,0.276,0.223,0.499,0.499,0.499s0.499-0.223,0.499-0.499V31.005h3.75c0.276,0,0.499-0.223,0.499-0.499
		S86.829,30.008,86.553,30.008z"/>
	<path class="st4" d="M100.394,41.958c-0.159-0.401-3.888-9.839-4.453-11.086c-0.261-0.576-0.604-0.842-0.999-0.848
		c-0.587,0.022-0.873,0.681-0.94,0.864l-3.291,7.997c-0.004,0.01-0.009,0.019-0.013,0.03l-1.249,3.036
		c-0.105,0.255,0.017,0.546,0.271,0.65c0.256,0.108,0.546-0.016,0.651-0.271l1.129-2.743h6.882c0.616,1.552,1.071,2.703,1.084,2.736
		c0.077,0.196,0.265,0.315,0.463,0.315c0.061,0,0.123-0.011,0.183-0.035C100.369,42.503,100.495,42.214,100.394,41.958z
		 M91.911,38.591l3.02-7.34c0.011-0.029,0.025-0.06,0.041-0.092c0.019,0.034,0.039,0.075,0.061,0.124
		c0.327,0.723,1.795,4.393,2.954,7.308H91.911z"/>
	<g>
		<path class="st5" d="M108.294,42.7c-0.496,0-0.898-0.402-0.898-0.898V30.862c0-0.496,0.402-0.898,0.898-0.898
			c0.496,0,0.898,0.402,0.898,0.898v10.941C109.191,42.298,108.789,42.7,108.294,42.7z"/>
	</g>
	<path class="st5" d="M146.419,29.964c-0.496,0-0.898,0.402-0.898,0.898v10.941c0,0.496,0.402,0.898,0.898,0.898
		c0.496,0,0.898-0.402,0.898-0.898V30.862C147.317,30.366,146.914,29.964,146.419,29.964z"/>
	<path class="st5" d="M124.768,29.964c-0.496,0-0.898,0.402-0.898,0.898v8.398l-7.319-9.078c-0.31-0.386-0.874-0.447-1.261-0.135
		c-0.23,0.185-0.329,0.459-0.318,0.733c-0.003,0.029-0.017,0.053-0.017,0.082v10.941c0,0.496,0.402,0.898,0.898,0.898
		s0.898-0.402,0.898-0.898v-8.515l7.319,9.078c0.173,0.216,0.432,0.335,0.698,0.335c0.1,0,0.201-0.017,0.299-0.052
		c0.358-0.127,0.599-0.465,0.599-0.846V30.862C125.666,30.366,125.264,29.964,124.768,29.964z"/>
	<path class="st5" d="M137.367,35.791c-0.401-0.155-0.869-0.28-1.363-0.414c-1.815-0.488-3.101-0.917-3.125-1.997
		c-0.016-0.782,0.968-1.524,1.861-1.702c1.119-0.221,2.498,0.025,3.688,0.662l0.147,0.081c0.427,0.249,0.978,0.106,1.227-0.323
		c0.25-0.427,0.105-0.978-0.323-1.227l-0.205-0.115c-1.567-0.837-3.344-1.14-4.883-0.838c-1.654,0.329-3.343,1.728-3.305,3.501
		c0.054,2.509,2.7,3.221,4.452,3.692c0.448,0.121,0.872,0.235,1.186,0.355c1.688,0.649,1.773,1.407,1.8,1.656
		c0.052,0.468-0.183,1.01-0.598,1.38c-0.41,0.365-1.011,0.606-1.692,0.675c-1.405,0.149-2.833-0.261-3.909-1.115
		c-0.39-0.308-0.953-0.242-1.261,0.145c-0.308,0.389-0.242,0.953,0.145,1.261c1.25,0.991,2.845,1.533,4.467,1.533
		c0.246,0,0.494-0.013,0.74-0.038c1.07-0.109,2.005-0.498,2.704-1.122c0.848-0.756,1.303-1.872,1.187-2.915
		C140.154,37.535,139.165,36.481,137.367,35.791z"/>
	<path class="st5" d="M163.393,35.917h-4.502c-0.496,0-0.898,0.402-0.898,0.898c0,0.496,0.402,0.898,0.898,0.898h3.604v2.031
		c-0.507,0.445-1.799,1.4-3.576,1.344c-1.334-0.043-2.602-0.72-3.478-1.858c-0.883-1.148-1.216-2.56-0.913-3.873
		c0.431-1.869,2.049-3.76,4.395-3.761c1.384-0.024,2.488,0.354,3.202,1.125c0.336,0.364,0.905,0.386,1.268,0.049
		c0.364-0.337,0.386-0.905,0.049-1.268c-1.057-1.142-2.672-1.718-4.608-1.699c-2.819,0-5.365,2.167-6.055,5.152
		c-0.425,1.838,0.028,3.797,1.241,5.371c1.204,1.566,2.97,2.498,4.843,2.557c0.069,0.002,0.138,0.004,0.206,0.004
		c2.99-0.001,4.905-2.065,4.986-2.156c0.151-0.165,0.235-0.381,0.235-0.604v-3.311C164.291,36.319,163.888,35.917,163.393,35.917z"
		/>
	<path class="st5" d="M179.54,29.964c-0.496,0-0.898,0.402-0.898,0.898v4.402h-7.178v-4.402c0-0.496-0.402-0.898-0.898-0.898
		s-0.898,0.402-0.898,0.898v10.941c0,0.496,0.402,0.898,0.898,0.898s0.898-0.402,0.898-0.898v-4.743h7.178v4.743
		c0,0.496,0.402,0.898,0.898,0.898s0.898-0.402,0.898-0.898V30.862C180.438,30.366,180.036,29.964,179.54,29.964z"/>
	<path class="st5" d="M194.017,29.964h-8.161c-0.496,0-0.898,0.402-0.898,0.898c0,0.496,0.402,0.898,0.898,0.898h3.183v10.152
		c0,0.496,0.402,0.898,0.898,0.898s0.898-0.402,0.898-0.898V31.759h3.182c0.496,0,0.898-0.402,0.898-0.898
		C194.915,30.366,194.513,29.964,194.017,29.964z"/>
	<g class="st6">
		<g class="st7">
			<linearGradient id="SVGID_5_" gradientUnits="userSpaceOnUse" x1="13.2267" y1="129.8396" x2="52.8721" y2="90.1942">
				<stop  offset="0" style="stop-color:#005EA0"/>
				<stop  offset="0.7" style="stop-color:#0092D5"/>
			</linearGradient>
			<path class="st8" d="M41.562,122.959L41.562,122.959c-3.147,0-5.698-2.551-5.698-5.698V85.748c0-3.147,2.551-5.698,5.698-5.698h0
				c3.147,0,5.698,2.551,5.698,5.698v31.512C47.261,120.407,44.709,122.959,41.562,122.959z"/>
			<linearGradient id="SVGID_6_" gradientUnits="userSpaceOnUse" x1="-1.2397" y1="118.3825" x2="39.0804" y2="78.0623">
				<stop  offset="0" style="stop-color:#005EA0"/>
				<stop  offset="0.7" style="stop-color:#0092D5"/>
			</linearGradient>
			<path class="st9" d="M3.379,122.959L3.379,122.959c-3.147,0-5.698-2.551-5.698-5.698v-6.993c0-3.147,2.551-5.698,5.698-5.698h0
				c3.147,0,5.698,2.551,5.698,5.698v6.993C9.077,120.407,6.526,122.959,3.379,122.959z"/>
			<linearGradient id="SVGID_7_" gradientUnits="userSpaceOnUse" x1="5.9418" y1="124.1628" x2="45.8051" y2="84.2994">
				<stop  offset="0" style="stop-color:#005EA0"/>
				<stop  offset="0.7" style="stop-color:#0092D5"/>
			</linearGradient>
			<path class="st10" d="M22.471,122.959L22.471,122.959c-3.147,0-5.698-2.551-5.698-5.698V98.008c0-3.147,2.551-5.698,5.698-5.698
				h0c3.147,0,5.698,2.551,5.698,5.698v19.252C28.169,120.407,25.618,122.959,22.471,122.959z"/>
		</g>
		<g class="st7">
			<path class="st11" d="M68.391,110.649c3.716,1.899,3.927,8.011,0.608,10.373c-1.309,0.932-2.978,1.322-4.545,0.938
				c-1.282-0.314-2.489-1.056-3.24-2.155c-0.752-1.101-1.017-2.452-1.017-3.766c0-2.706,1.355-5.18,4.113-5.897
				c0.468-0.122,0.943-0.177,1.416-0.171C66.647,109.982,67.559,110.224,68.391,110.649z"/>
			<path class="st12" d="M76,110.532h8.521 M80.261,110.863v11.339"/>
			<path class="st13" d="M87.889,122.201l4.566-11.096c0,0,0.459-1.253,1.027,0c0.568,1.253,4.456,11.096,4.456,11.096
				 M89.148,119.141h7.391"/>
			<line class="st14" x1="106.325" y1="110.888" x2="106.325" y2="121.862"/>
			<line class="st14" x1="144.561" y1="110.888" x2="144.561" y2="121.862"/>
			<line class="st14" x1="168.779" y1="110.888" x2="168.779" y2="121.862"/>
			<line class="st14" x1="177.779" y1="110.888" x2="177.779" y2="121.862"/>
			<line class="st14" x1="113.906" y1="110.888" x2="113.906" y2="121.862"/>
			<polyline class="st14" points="122.848,110.888 122.848,121.862 113.906,110.772 			"/>
			<path class="st14" d="M129.867,120.82c1.284,1.018,2.943,1.476,4.571,1.309c0.803-0.082,1.603-0.364,2.206-0.902
				s0.983-1.351,0.894-2.154c-0.141-1.278-1.285-1.982-2.377-2.402c-1.631-0.627-5.027-0.877-5.077-3.239
				c-0.029-1.346,1.389-2.37,2.59-2.608c1.434-0.285,3.023,0.07,4.298,0.752c0.06,0.032,0.119,0.065,0.177,0.099"/>
			<path class="st14" d="M157.071,116.859h4.515v3.32c0,0-1.777,1.951-4.515,1.864c-3.394-0.108-6.014-3.552-5.253-6.849
				c0.561-2.432,2.61-4.469,5.195-4.469c0.262,0,2.505-0.158,3.961,1.415"/>
			<line class="st14" x1="168.779" y1="116.204" x2="177.779" y2="116.204"/>
			<polyline class="st14" points="184.114,110.888 188.272,110.888 192.299,110.888 			"/>
			<line class="st14" x1="188.207" y1="121.971" x2="188.207" y2="111.529"/>
		</g>
	</g>
</g>
<g id="Layer_2">
</g>
</svg>
